<?xml version="1.0" encoding="UTF-8"?>
<svg width="700pt" height="700pt" version="1.1" viewBox="0 0 700 700" xmlns="http://www.w3.org/2000/svg" xmlns:xlink="http://www.w3.org/1999/xlink">
 <defs>
  <symbol id="h" overflow="visible">
   <path  fill="white" d="m39.078-2.3281c-2.0117 1.043-4.1094 1.8281-6.2969 2.3594s-4.4648 0.79688-6.8281 0.79688c-7.0859 0-12.699-1.9766-16.844-5.9375-4.1367-3.957-6.2031-9.3281-6.2031-16.109 0-6.7891 2.0664-12.164 6.2031-16.125 4.1445-3.9688 9.7578-5.9531 16.844-5.9531 2.3633 0 4.6406 0.26562 6.8281 0.79688s4.2852 1.3242 6.2969 2.375v8.7969c-2.0312-1.3828-4.0391-2.3984-6.0156-3.0469-1.9688-0.64453-4.0469-0.96875-6.2344-0.96875-3.9062 0-6.9844 1.2578-9.2344 3.7656-2.2422 2.5-3.3594 5.9531-3.3594 10.359 0 4.3867 1.1172 7.8359 3.3594 10.344 2.25 2.5 5.3281 3.75 9.2344 3.75 2.1875 0 4.2656-0.32031 6.2344-0.96875 1.9766-0.64453 3.9844-1.6602 6.0156-3.0469z"/>
  </symbol>
  <symbol id="g" overflow="visible">
   <path fill="white" d="m16.031-40.953v9.0625h10.516v7.2812h-10.516v13.531c0 1.4805 0.28906 2.4805 0.875 3 0.59375 0.52344 1.7656 0.78125 3.5156 0.78125h5.2344v7.2969h-8.7344c-4.0312 0-6.8867-0.83594-8.5625-2.5156-1.6797-1.6875-2.5156-4.5391-2.5156-8.5625v-13.531h-5.0781v-7.2812h5.0781v-9.0625z"/>
  </symbol>
  <symbol id="f" overflow="visible">
   <path fill="white" d="m26.594-27.234v-17.078h10.266v44.312h-10.266v-4.6094c-1.3984 1.875-2.9453 3.25-4.6406 4.125-1.6875 0.875-3.6406 1.3125-5.8594 1.3125-3.9297 0-7.1562-1.5625-9.6875-4.6875-2.5234-3.125-3.7812-7.1445-3.7812-12.062 0-4.9141 1.2578-8.9375 3.7812-12.062 2.5312-3.125 5.7578-4.6875 9.6875-4.6875 2.1953 0 4.1445 0.44531 5.8438 1.3281 1.707 0.88672 3.2578 2.2578 4.6562 4.1094zm-6.7188 20.656c2.1875 0 3.8516-0.79688 5-2.3906 1.1445-1.5938 1.7188-3.9102 1.7188-6.9531 0-3.0391-0.57422-5.3594-1.7188-6.9531-1.1484-1.5938-2.8125-2.3906-5-2.3906-2.168 0-3.8242 0.79688-4.9688 2.3906-1.1484 1.5938-1.7188 3.9141-1.7188 6.9531 0 3.043 0.57031 5.3594 1.7188 6.9531 1.1445 1.5938 2.8008 2.3906 4.9688 2.3906z"/>
  </symbol>
  <symbol id="e" overflow="visible">
   <path fill="white" d="m21.875-6.5781c2.1758 0 3.8359-0.79688 4.9844-2.3906 1.1562-1.5938 1.7344-3.9102 1.7344-6.9531 0-3.0391-0.57812-5.3594-1.7344-6.9531-1.1484-1.5938-2.8086-2.3906-4.9844-2.3906-2.1875 0-3.8672 0.80469-5.0312 2.4062-1.168 1.6055-1.75 3.918-1.75 6.9375 0 3.0234 0.58203 5.3359 1.75 6.9375 1.1641 1.6055 2.8438 2.4062 5.0312 2.4062zm-6.7812-20.656c1.4062-1.8516 2.9609-3.2227 4.6719-4.1094 1.707-0.88281 3.6719-1.3281 5.8906-1.3281 3.9375 0 7.1641 1.5625 9.6875 4.6875 2.5195 3.125 3.7812 7.1484 3.7812 12.062 0 4.918-1.2617 8.9375-3.7812 12.062-2.5234 3.125-5.75 4.6875-9.6875 4.6875-2.2188 0-4.1836-0.44531-5.8906-1.3281-1.7109-0.88281-3.2656-2.2539-4.6719-4.1094v4.6094h-10.188v-44.312h10.188z"/>
  </symbol>
  <symbol id="d" overflow="visible">
   <path fill="white" d="m16.312-34.234v25.953h3.9375c4.4766 0 7.8984-1.1094 10.266-3.3281 2.3633-2.2266 3.5469-5.457 3.5469-9.6875 0-4.2188-1.1797-7.4258-3.5312-9.625-2.3555-2.207-5.7812-3.3125-10.281-3.3125zm-10.953-8.2812h11.562c6.4453 0 11.25 0.46094 14.406 1.375 3.1641 0.91797 5.8789 2.4805 8.1406 4.6875 2 1.918 3.4844 4.1328 4.4531 6.6406 0.96875 2.5 1.4531 5.3398 1.4531 8.5156 0 3.2109-0.48438 6.0742-1.4531 8.5938-0.96875 2.5117-2.4531 4.7266-4.4531 6.6406-2.2734 2.1992-5.0078 3.7617-8.2031 4.6875-3.1875 0.91797-7.9688 1.375-14.344 1.375h-11.562z"/>
  </symbol>
  <symbol id="c" overflow="visible">
   <path fill="white" d="m4.9062-31.891h10.188v31.891h-10.188zm0-12.422h10.188v8.3125h-10.188z"/>
  </symbol>
  <symbol id="b" overflow="visible">
   <path fill="white" d="m4.9062-44.312h10.188v44.312h-10.188z"/>
  </symbol>
  <symbol id="a" overflow="visible">
   <path fill="000a1d" d="m0.28125-42.516h39.188v8.2812h-14.094v34.234h-10.969v-34.234h-14.125z"/>
  </symbol>
 </defs>
 <g>
  <path fill="000a1d" d="m548.33 256.67h-0.58203c-0.46484-8.5156-1.3984-17.035-2.918-25.551-14-73.5-68.25-132.65-139.54-153.3l0.46484-4.4336c0.93359-9.8008-2.2148-19.602-8.8672-26.949-6.6484-7.3516-16.102-11.551-25.898-11.551h-41.766c-9.918 0-19.367 4.1992-25.898 11.551-6.6484 7.3516-9.918 17.148-8.8672 26.949l0.46484 4.4336c-71.285 20.648-125.65 79.684-139.65 153.3-1.5156 8.5156-2.4492 17.035-2.918 25.434h-0.58203c-19.25 0-35 15.75-35 35v11.668c0 17.383 12.715 31.734 29.398 34.418-0.11719 8.3984 2.5664 16.684 8.0508 23.102 6.6484 7.9336 16.449 12.484 26.715 12.484h21.582c3.7344 15.75 9.918 30.684 18.551 44.566l-11.785 11.898c-6.6484 6.6484-10.383 15.398-10.383 24.734 0 9.332 3.7344 18.082 10.266 24.617 6.6484 6.6484 15.398 10.383 24.734 10.383 9.332 0 18.082-3.7344 24.617-10.266l12.016-11.898c10.266 6.418 21.234 11.434 32.898 15.168v7.3516c0 19.25 15.75 35 35 35h23.332c19.25 0 35-15.75 35-35v-7.4648c11.668-3.7344 22.75-8.75 32.898-15.168l11.898 11.785c6.6484 6.6484 15.398 10.383 24.734 10.383 9.332 0 18.082-3.7344 24.617-10.266 6.6484-6.6484 10.383-15.398 10.383-24.734 0-9.332-3.7344-18.082-10.266-24.617l-11.898-11.898c8.6328-13.883 14.816-28.816 18.551-44.566h20.184c17.734 0 33.25-12.602 35.934-29.168 0.35156-2.1016 0.46484-4.3164 0.46484-6.418 16.566-2.8008 29.285-17.035 29.285-34.418v-11.668c0-19.25-15.75-35-35-35zm-272.65 186.08-8.2852-6.0664-25.434 26.133c-4.4336 4.4336-11.785 4.5508-16.449 0-2.2148-2.2148-3.3828-5.1328-3.3828-8.168 0-3.0352 1.168-5.9492 3.5-8.2852l25.785-25.316-5.9492-8.2852c-11.434-15.984-18.898-33.832-22.051-52.965l-1.6328-9.8008h-41.066c-3.3828 0-6.6484-1.5156-8.8672-4.1992-1.0508-1.2852-2.6836-3.8516-2.6836-7.4648h81.551c0 36.516 19.949 70 52.5 87.383v32.082c-9.8008-3.8516-19.133-8.75-27.648-15.051zm97.648-17.035v64.285c0 6.418-5.25 11.668-11.668 11.668h-23.332c-6.418 0-11.668-5.25-11.668-11.668v-64.285c0-8.6328-4.8984-16.566-12.715-20.648-24.617-13.184-39.785-38.852-39.785-66.734 0-7.1172 0.93359-13.766 2.8008-20.301 5.6016-20.301 19.484-37.332 38.035-46.785v59.852c0 8.9844 4.8984 17.035 12.832 20.883l11.668 5.832c6.5352 3.2656 14.352 3.2656 20.883 0l11.668-5.832c7.9336-3.9648 12.832-12.016 12.832-20.883v-59.852c18.434 9.4492 32.434 26.484 38.035 47.016 1.8672 6.1836 2.8008 12.949 2.8008 19.949 0 27.883-15.285 53.551-39.785 66.734-7.8164 4.1992-12.715 12.133-12.715 20.648zm144.43-75.715h-39.668l-1.6328 9.8008c-3.1484 19.133-10.5 36.984-22.051 52.965l-5.9492 8.2852 25.898 25.434c2.2148 2.2148 3.5 5.1328 3.5 8.168s-1.2852 5.9492-3.5 8.2852c-4.4336 4.4336-11.785 4.5508-16.332 0l-12.715-12.602-12.367-13.648-8.5156 6.3008c-8.3984 6.1836-17.734 11.199-27.535 15.051l0.23437-32.082c32.082-17.266 52.148-50.75 52.148-87.266h81.434c0 0.69922 0.11719 1.3984 0 2.1016-0.93359 5.4844-6.418 9.5664-12.832 9.5664zm42.234-46.668c0 6.418-5.25 11.668-11.668 11.668h-102.2c-0.23437-1.0508-0.35156-2.1016-0.69922-3.0352-8.168-29.633-29.867-54.016-58.215-65.215-0.58203-0.35156-1.2852-0.58203-1.9844-0.93359l-2.1016-0.58203c-11.316-2.2148-21.465 6.0664-21.465 17.035v68.949l-11.668 5.832-11.668-5.9492v-68.832c0-10.965-10.5-19.25-21.465-17.035l-1.9844 0.58203c-0.81641 0.35156-1.3984 0.58203-2.1016 0.93359-28.352 11.199-50.168 35.582-58.215 64.984-0.35156 1.0508-0.46484 2.2148-0.69922 3.3828h-102.2c-6.418 0-11.668-5.25-11.668-11.668v-11.668c0-6.418 5.25-11.668 11.668-11.668h92.75c6.418 0 11.668-5.25 11.668-11.668 0-6.418-5.25-11.668-11.668-11.668h-68.832c0.46484-7 1.168-14.117 2.5664-21.117 12.133-63.465 58.102-114.8 119-134.05l6.3008 63c0.69922 6.418 6.418 10.965 12.715 10.5 6.418-0.58203 11.082-6.3008 10.5-12.715l-9.1016-91c-0.35156-3.2656 0.69922-6.5352 2.918-8.9844 2.2148-2.4492 5.3672-3.8516 8.6328-3.8516h41.766c3.3828 0 6.418 1.3984 8.6328 3.8516 2.2148 2.4492 3.2656 5.7148 2.918 8.9844l-9.1016 91c-0.58203 6.418 4.082 12.133 10.5 12.715h1.168c5.9492 0 10.965-4.4336 11.551-10.5l6.3008-63c60.898 19.25 106.98 70.582 119 134.05 1.2852 7 2.1016 14.117 2.5664 21.234h-69.184c-6.418 0-11.668 5.25-11.668 11.668s5.25 11.668 11.668 11.668h93.102c6.418 0 11.668 5.25 11.668 11.668v11.668z"/>
 
 </g>
</svg>
