<svg xmlns="http://www.w3.org/2000/svg" xmlns:xlink="http://www.w3.org/1999/xlink" version="1.1" width="225" height="80" viewBox="0 0 225 80">
<defs>
<clipPath id="clip_0">
<path transform="matrix(1,0,0,-1,0,80)" d="M0 0H222.592V79H0Z"/>
</clipPath>
</defs>
<g id="layer_1" data-name="Layer 1">
<path transform="matrix(1,0,0,-1,88.4913,40.2)" d="M0 0-21.7 6.4V-22.7H-14.3V-3.4L-7.4-5.4V-22.7H.1V0Z" fill="#edc011"/>
<path transform="matrix(1,0,0,-1,63.3913,4.199997)" d="M0 0-48.4-14.2V-21.6L0-7.4 48.4-21.6V-14.2Z" fill="#edc011"/>
<path transform="matrix(1,0,0,-1,63.3913,18.5)" d="M0 0-39.5-11.6V-44.3H-32.1V-16.9L0-7.5 32.1-16.9V-44.4H39.5V-11.6Z" fill="#edc011"/>
<path transform="matrix(1,0,0,-1,38.2913,40.2)" d="M0 0 21.7 6.4V-22.7H14.3V-3.4L7.4-5.4V-22.7H-.1V0Z" fill="#edc011"/>
<path transform="matrix(1,0,0,-1,0,80)" d="M14.991 3H111.891V10.4H14.991Z" fill="#edc011"/>
<path transform="matrix(1,0,0,-1,122.7913,46)" d="M0 0V15.1H2.9L9.4 4.4H7.8L14.1 15.1H17V0H13.8V10.1H14.4L9.3 1.6H7.7L2.5 10.1H3.2V0Z" fill="#edc011"/>
<path transform="matrix(1,0,0,-1,146.9913,43.2)" d="M0 0H8.2V-2.8H-3.5V12.3H8V9.5H0ZM-.3 6.2H7V3.3999999H-.3Z" fill="#edc011"/>
<g clip-path="url(#clip_0)">
<path transform="matrix(1,0,0,-1,157.9913,46)" d="M0 0V15.1H6.9C8.5 15.1 10 14.8 11.3 14.2 12.6 13.6 13.5 12.7 14.2 11.6 14.9 10.5 15.3 9.1 15.3 7.6 15.3 6.1 14.9 4.7 14.2 3.6 13.5 2.5 12.5 1.6 11.3 1 10 .4 8.6 .1 6.9 .1H0ZM3.5 2.8H6.7C7.7 2.8 8.6 3 9.3 3.4 10 3.8 10.6 4.3 11 5 11.4 5.7 11.6 6.5 11.6 7.5 11.6 8.5 11.4 9.3 11 10 10.6 10.7 10 11.3 9.3 11.6 8.6 12 7.7 12.2 6.7 12.2H3.5Z" fill="#edc011"/>
<path transform="matrix(1,0,0,-1,175.8913,46)" d="M0 0V15.1H6.9C8.5 15.1 10 14.8 11.3 14.2 12.6 13.6 13.5 12.7 14.2 11.6 14.9 10.5 15.3 9.1 15.3 7.6 15.3 6.1 14.9 4.7 14.2 3.6 13.5 2.5 12.5 1.6 11.3 1 10 .4 8.6 .1 6.9 .1H0ZM3.5 2.8H6.7C7.7 2.8 8.6 3 9.3 3.4 10 3.8 10.6 4.3 11 5 11.4 5.7 11.6 6.5 11.6 7.5 11.6 8.5 11.4 9.3 11 10 10.6 10.7 10 11.3 9.3 11.6 8.6 12 7.7 12.2 6.7 12.2H3.5Z" fill="#edc011"/>
<path transform="matrix(1,0,0,-1,195.1913,32.8)" d="M0 0C-.6 0-1.1 .2-1.5 .5-1.9 .9-2.1 1.3-2.1 1.8-2.1 2.3-1.9 2.8-1.5 3.1-1.1 3.5-.6 3.6 0 3.6 .6 3.6 1.1 3.4 1.5 3.1 1.9 2.8 2.1 2.3 2.1 1.8 2.1 1.2 1.9 .8 1.5 .4 1.2 .2 .7 0 0 0M-1.7-1.6H1.7V-13.200001H-1.7Z" fill="#edc011"/>
<path transform="matrix(1,0,0,-1,205.0913,46.3)" d="M0 0C-1.2 0-2.4 .2-3.5 .5-4.6 .8-5.5 1.2-6.2 1.8L-5 4.4C-4.4 3.9-3.6 3.6-2.7 3.3-1.8 3-.9 2.9 0 2.9 .7 2.9 1.3 3 1.7 3.1 2.1 3.2 2.4 3.4 2.6 3.7 2.8 3.9 2.9 4.2 2.9 4.5 2.9 4.9 2.7 5.2 2.4 5.5 2.1 5.7 1.7 5.9 1.1 6.1 .6 6.3 0 6.4-.6 6.5-1.2 6.6-1.8 6.8-2.5 7-3.1 7.2-3.7 7.5-4.2 7.8-4.7 8.1-5.1 8.6-5.5 9.1-5.8 9.6-6 10.3-6 11.1-6 12-5.8 12.8-5.3 13.5-4.8 14.2-4.1 14.8-3.2 15.2-2.3 15.6-1.1 15.8 .4 15.8 1.4 15.8 2.3 15.7 3.2 15.5 4.1 15.3 4.9 14.9 5.6 14.5L4.5 11.9C3.8 12.3 3.1 12.6 2.4 12.8 1.7 13 1 13.1 .3 13.1-.4 13.1-.9 13-1.4 12.9-1.8 12.8-2.1 12.5-2.3 12.3-2.5 12-2.6 11.8-2.6 11.4-2.6 11-2.4 10.7-2.1 10.4-1.8 10.2-1.4 10-.8 9.8-.3 9.7 .3 9.5 .9 9.4 1.5 9.3 2.2 9.1 2.8 8.9 3.4 8.7 4 8.4 4.5 8.1 5 7.8 5.4 7.4 5.8 6.8 6.2 6.2 6.3 5.6 6.3 4.8 6.3 3.9 6.1 3.2 5.6 2.5 5.1 1.8 4.4 1.2 3.5 .8 2.6 .2 1.4 0 0 0" fill="#edc011"/>
<path transform="matrix(1,0,0,-1,134.9913,61.2)" d="M0 0C-.4-.4-.9-.7-1.5-1-2.1-1.3-2.7-1.5-3.3-1.6-3.9-1.7-4.6-1.8-5.2-1.8-6.7-1.8-8-1.5-9.1-.9-10.2-.3-11.2 .6-11.8 1.7-12.5 2.8-12.8 4-12.8 5.4-12.8 6.8-12.5 8-11.8 9.1-11.1 10.2-10.3 11-9.1 11.7-8 12.3-6.7 12.6-5.2 12.6-4.1 12.6-3 12.4-2.1 12.1-1.2 11.8-.4 11.2 .2 10.5L-.9 9.3C-1.5 9.9-2.1 10.3-2.8 10.6-3.5 10.9-4.3 11-5.1 11-6.2 11-7.2 10.8-8 10.3-8.9 9.8-9.6 9.1-10.1 8.3-10.6 7.5-10.9 6.5-10.9 5.4-10.9 4.3-10.6 3.4-10.1 2.5-9.6 1.7-8.9 1-8 .5-7.1 0-6.1-.2-5-.2-4.2-.2-3.4-.1-2.7 .2-2 .4-1.4 .8-.8 1.4ZM-1.7 5.4H0V0H-1.7Z" fill="#edc011"/>
<path transform="matrix(1,0,0,-1,142.0913,62.8)" d="M0 0V14H5.4C6.6 14 7.7 13.8 8.5 13.4 9.4 13 10 12.5 10.5 11.8 11 11.1 11.2 10.2 11.2 9.2 11.2 8.2 11 7.4 10.5 6.6 10 5.9 9.3 5.3 8.5 4.9 7.6 4.5 6.6 4.3 5.4 4.3H1L1.8 5.1V0H0C0 0 0 0 0 0M1.8 5 1.1 5.8H5.4C6.8 5.8 7.8 6.1 8.5 6.7 9.2 7.3 9.6 8.1 9.6 9.2 9.6 10.3 9.2 11.1 8.5 11.7 7.8 12.3 6.8 12.6 5.4 12.6H1.1L1.8 13.4ZM9.6 0 5.9 5.1H7.9L11.5 0Z" fill="#edc011"/>
<path transform="matrix(1,0,0,-1,165.9913,63)" d="M0 0C-1.4 0-2.7 .3-3.9 .9-5 1.5-5.9 2.4-6.6 3.5-7.3 4.6-7.6 5.8-7.6 7.2-7.6 8.6-7.3 9.8-6.6 10.9-5.9 12-5.1 12.8-3.9 13.4-2.8 14-1.5 14.3-.1 14.3 1.3 14.3 2.6 14 3.7 13.4 4.8 12.8 5.7 11.9 6.4 10.9 7.1 9.8 7.4 8.6 7.4 7.2 7.4 5.8 7.1 4.6 6.4 3.5 5.7 2.4 4.9 1.6 3.7 .9 2.7 .3 1.4 0 0 0M0 1.6C1.1 1.6 2.1 1.8 2.9 2.3 3.8 2.8 4.4 3.5 4.9 4.3 5.4 5.1 5.6 6.1 5.6 7.2 5.6 8.3 5.4 9.3 4.9 10.1 4.4 10.9 3.7 11.6 2.9 12.1 2 12.6 1.1 12.8 0 12.8-1.1 12.8-2.1 12.6-2.9 12.1-3.8 11.6-4.4 10.9-4.9 10.1-5.4 9.3-5.6 8.3-5.6 7.2-5.6 6.1-5.4 5.2-4.9 4.3-4.4 3.5-3.7 2.8-2.9 2.3-2.1 1.8-1.1 1.6 0 1.6" fill="#edc011"/>
<path transform="matrix(1,0,0,-1,185.3913,63)" d="M0 0C-1.2 0-2.3 .2-3.2 .7-4.1 1.2-4.8 1.9-5.2 2.8-5.7 3.7-5.9 4.8-5.9 6.1V14.1H-4.1V6.1C-4.1 4.6-3.7 3.4-3 2.6-2.3 1.8-1.3 1.5 .1 1.5 1.4 1.5 2.5 1.9 3.2 2.6 3.9 3.4 4.3 4.5 4.3 6.1V14.1H6V6.1C6 4.8 5.8 3.7 5.3 2.8 4.8 1.9 4.2 1.2 3.3 .7 2.3 .3 1.2 0 0 0" fill="#edc011"/>
<path transform="matrix(1,0,0,-1,198.6913,62.8)" d="M0 0V14H5.4C6.6 14 7.7 13.8 8.5 13.4 9.4 13 10 12.5 10.5 11.8 11 11.1 11.2 10.2 11.2 9.2 11.2 8.2 11 7.3 10.5 6.6 10 5.9 9.3 5.3 8.5 4.9 7.6 4.5 6.6 4.3 5.4 4.3H1L1.8 5.1V0H0C0 0 0 0 0 0M1.8 5 1.1 5.8H5.4C6.8 5.8 7.8 6.1 8.5 6.7 9.2 7.3 9.6 8.1 9.6 9.2 9.6 10.3 9.2 11.1 8.5 11.7 7.8 12.3 6.8 12.6 5.4 12.6H1.1L1.8 13.4Z" fill="#edc011"/>
</g>
</g>
</svg>
